<?xml version="1.0" encoding="utf-8"?>
<!-- Generator: Adobe Illustrator 24.0.2, SVG Export Plug-In . SVG Version: 6.00 Build 0)  -->
<svg version="1.1" id="Layer_1" xmlns="http://www.w3.org/2000/svg" xmlns:xlink="http://www.w3.org/1999/xlink" x="0px" y="0px"
	 viewBox="0 0 120 107.4" style="enable-background:new 0 0 120 107.4;" xml:space="preserve">
<style type="text/css">
	.st0{fill:#F4BB3A;}
</style>
<g>
	<path class="st0" d="M86,88.1c-9.5,0-19.1,0-28.9,0c1.4,4.7,1.1,9.1-2,13.1c-1.9,2.4-4.3,3.9-7.3,4.6c-6,1.4-12.1-1.6-14.8-7.2
		c-2.9-6-1-12.1,5-16.8c-2.4-9.9-4.7-19.7-7.1-29.5c-3.3-13.8-6.6-27.6-9.9-41.3C20.7,8.9,19.6,8,17.5,8c-4.3,0-8.7,0-13,0
		C1.7,8,0,6.5,0,4.1C0,1.6,1.7,0,4.6,0C8.8,0,13,0,17.3,0C23.4,0,27.6,3.3,29,9.3c0.5,2.2,1.2,4.4,1.6,6.6c0.2,1.1,0.7,1.4,1.7,1.4
		c9.6,0,19.1,0,28.7,0c18.1,0,36.3,0.1,54.4,0c3.1,0,5.3,2.4,4.5,5.7c-3.7,15-7.2,30-10.8,45c-0.7,3.1-1.9,4-5,4
		c-19.4,0-38.9,0-58.3,0c-0.6,0-1.1,0-1.9,0c0.5,1.9,0.8,3.7,1.4,5.3c0.7,1.9,2.2,2.8,4.1,2.8c2.8,0,5.6,0,8.4,0
		c13.4,0,26.8,0,40.2,0c6.8,0,12.1,4.3,13.3,10.9c1.4,7.4-3.9,14.3-11.7,15.2c-7.1,0.8-13.9-5-14.2-12.2C85.4,91.9,85.8,90,86,88.1z
		 M61.5,25.3c0.4,5.1,0.8,10.1,1.2,15.1c6.2,0,12.2,0,18.4,0c0.4-5.1,0.8-10.1,1.2-15.1C75.2,25.3,68.4,25.3,61.5,25.3z M32.9,25.2
		c0,0.4,0,0.6,0.1,0.9c1.1,4.5,2.1,9,3.2,13.4c0.2,0.9,0.7,1,1.4,1c5.3,0,10.6,0,15.8,0c0.4,0,0.7-0.1,1.2-0.1
		c-0.4-5.1-0.8-10.1-1.2-15.1C46.5,25.2,39.8,25.2,32.9,25.2z M89.1,40.4c6.2,0,12.2,0,18.2,0c1.2-5.1,2.4-10.1,3.6-15.2
		c-7,0-13.7,0-20.7,0C89.9,30.3,89.5,35.3,89.1,40.4z M63.4,48.6c0.4,4.9,0.7,9.7,1.2,14.4c0,0.3,0.8,0.7,1.2,0.7
		c2.9,0.1,5.9,0,8.8,0c1.5,0,3,0,4.7,0c0.4-5.2,0.8-10.1,1.2-15.2C74.7,48.6,69.2,48.6,63.4,48.6z M56.5,63.8
		c-0.4-5.2-0.8-10.2-1.2-15.2c-5.7,0-11.2,0-16.7,0c-0.1,0.2-0.1,0.3-0.1,0.4c1.1,4.7,2.2,9.4,3.4,14.2c0.1,0.3,0.6,0.7,0.8,0.7
		C47.2,63.8,51.7,63.8,56.5,63.8z M105.4,48.6c-5.7,0-11.3,0-16.9,0c-0.4,5.1-0.8,10.1-1.2,15.2c4.8,0,9.3,0,13.9,0
		c0.3,0,0.7-0.5,0.8-0.9c0.5-1.9,1-3.8,1.4-5.7C104,54.3,104.7,51.5,105.4,48.6z M39.8,93.1c0,2.8,2.3,5,5.1,5c2.8,0,5-2.3,5-5.1
		c0-2.7-2.4-5-5.1-5C42,88,39.8,90.3,39.8,93.1z M103.4,93.1c0-2.8-2.1-5.1-4.9-5.1c-2.7,0-5.1,2.2-5.1,5c-0.1,2.7,2.2,5.1,5,5.1
		C101.2,98.1,103.4,95.9,103.4,93.1z"/>
</g>
</svg>
