<?xml version="1.0" encoding="utf-8"?>
<!-- Generator: Adobe Illustrator 24.0.2, SVG Export Plug-In . SVG Version: 6.00 Build 0)  -->
<svg version="1.1" id="Layer_1" xmlns="http://www.w3.org/2000/svg" xmlns:xlink="http://www.w3.org/1999/xlink" x="0px" y="0px"
	 viewBox="0 0 120 120" style="enable-background:new 0 0 120 120;" xml:space="preserve">
<style type="text/css">
	.st0{fill:#A58D65;}
</style>
<path class="st0" d="M60.2,0c33,0,59.8,26.9,59.8,60c0,33.2-27,60.1-60.3,60C26.7,120,0,92.9,0,59.5C0,26.7,27.1,0,60.2,0z
	 M73.7,53.4c-3.9-0.2-7.2-0.3-10.9-0.5c0.3-3.2-0.4-6.8,1-8.5c1.4-1.5,5.1-1,7.9-1.4c0-3.4,0-6.7,0-11.3c-5,1.1-9.9,1.1-13.7,3.2
	c-7,3.9-4.7,11.6-5.2,18c-2.4,0.2-4.4,0.3-6.5,0.5c0,3.1,0,6,0,8.9c2.3,0.2,4.2,0.3,6.7,0.5c0,8.8,0,17.3,0,26.1c3.5,0,6.6,0,10.1,0
	c0-8.9,0-17.4,0-26.1c3.1-0.2,5.8-0.3,8.6-0.5C72.3,59.5,72.9,56.8,73.7,53.4z"/>
</svg>
