<?xml version="1.0" encoding="utf-8"?>
<!-- Generator: Adobe Illustrator 24.0.2, SVG Export Plug-In . SVG Version: 6.00 Build 0)  -->
<svg version="1.1" id="Layer_1" xmlns="http://www.w3.org/2000/svg" xmlns:xlink="http://www.w3.org/1999/xlink" x="0px" y="0px"
	 viewBox="0 0 39.4 44.6" style="enable-background:new 0 0 39.4 44.6;" xml:space="preserve">
<style type="text/css">
	.st0{fill:#F4BB3A;}
	.st1{fill:#0d1f0e;}
</style>
<g>
	<g>
		<path class="st0" d="M37.3,28.3L1.8,26.9C0.8,26.9,0,26,0,25l0.1-2.6c0-1,0.9-1.8,1.9-1.8L37.6,22c1,0,1.8,0.9,1.8,1.9l-0.1,2.6
			C39.2,27.5,38.4,28.3,37.3,28.3z"/>
	</g>
	<g>
		<path class="st0" d="M31.5,3.9L7.6,4.8c-1,0-1.7,0.8-1.7,1.8l0,0L6,9.4l0.1,1.7l1.7-0.1l23.9-0.9l1.7-0.1l-0.1-1.7l-0.1-2.8l0,0
			C33.3,4.6,32.5,3.8,31.5,3.9z"/>
	</g>
	<g>
		<path class="st0" d="M34.4,12.7H4.8c-1.2,0-2.1,0.8-2.1,1.7v0v2.8V19h2.1h29.6h2.1v-1.7v-2.8v0C36.5,13.5,35.6,12.7,34.4,12.7z"/>
	</g>
	<g>
		<path class="st0" d="M34.9,30.1l-30.4-1l-1.8-0.1l-0.1,1.8l-0.1,2.7l0,0.1c0,1,0.7,1.8,1.7,1.8l30.4,1c1,0,1.8-0.7,1.8-1.7l0-0.1
			l0.1-2.7l0.1-1.8L34.9,30.1z"/>
	</g>
	<g>
		<path class="st0" d="M31.9,37.7L7.3,38.3l-1.4,0l0,1.8L6,42.8l0,0.1c0,1,0.7,1.7,1.5,1.7L32,44.1c0.8,0,1.4-0.8,1.4-1.8l0-0.1
			l-0.1-2.7l0-1.8L31.9,37.7z"/>
	</g>
	<g>
		<path class="st1" d="M25.5,36.3c-1.2,0-2.4-0.3-3.3-1c-4.8-3.1-3.5-9.4-2.7-14c0.1-0.6,0.2-1.3,0.3-1.8c0.5-3.1,1-6.1,0.7-9.1
			c-0.1-1.5-0.6-2.7-1.2-4.1c-0.5-1.2-0.9-2.5-0.4-4.1c0.3-0.8,0.9-1.3,1.8-1.3c0.3,0,0.5,0,0.7,0.1c0.1-0.1,0.2-0.1,0.3-0.2
			C22.5,0.5,23.2,0,24.1,0l0.2,0c1.4,0,2.8,0.8,3.5,2.2c1.4,2.6,0.7,5.8,0.1,8.4l-0.2,0.8c-0.3,1.4-0.6,2.9-0.5,4.2
			c0.1,1.3,0.6,2.6,1,3.7l0.3,0.7c1,2.4,1.9,4.6,2.2,7.3c0.2,1.9,0.6,5.4-1.6,7.5C28.3,35.7,27,36.3,25.5,36.3L25.5,36.3z"/>
	</g>
	<path class="st0" d="M25.5,34.9c-0.9,0-1.8-0.3-2.6-0.7c-4-2.6-2.9-8.1-2.1-12.5c0.1-0.7,0.2-1.3,0.3-1.9c0.5-3.2,1-6.3,0.8-9.5
		c-0.1-1.7-0.7-3-1.3-4.5c-0.4-1-0.7-2-0.3-3.1c0.1-0.3,0.3-0.3,0.4-0.3c0.1,0,0.3,0.1,0.4,0.1c0.1,0.1,0.2,0.1,0.3,0.1
		c0.1,0,0.1,0,0.2,0c0.3-0.1,0.6-0.3,0.9-0.5c0.5-0.3,1-0.6,1.5-0.6l0.1,0c0.9,0,1.8,0.6,2.3,1.5c1.2,2.1,0.5,4.9,0,7.4l-0.2,0.8
		c-0.3,1.5-0.6,3.1-0.5,4.6c0.1,1.5,0.6,2.9,1.1,4.1l0.3,0.7c1,2.3,1.9,4.4,2.1,6.9c0.3,2.3,0.4,4.8-1.2,6.4
		C27.6,34.5,26.6,34.9,25.5,34.9L25.5,34.9z"/>
</g>
</svg>
